<svg width="21" height="21" viewBox="0 0 21 21" fill="none" xmlns="http://www.w3.org/2000/svg">
<mask id="path-1-inside-1_230_14906" fill="white">
<path d="M0 4C0 1.79086 1.79086 0 4 0H17C19.2091 0 21 1.79086 21 4V17C21 19.2091 19.2091 21 17 21H4C1.79086 21 0 19.2091 0 17V4Z"/>
</mask>
<path d="M-1 2C-1 -0.761424 1.23858 -3 4 -3H17C19.7614 -3 22 -0.761424 22 2L20 4C20 3.44772 18.6569 3 17 3H4C2.34315 3 1 3.44772 1 4L-1 2ZM22 17C22 19.7614 19.7614 22 17 22H4C1.23858 22 -1 19.7614 -1 17H1C1 18.6569 2.34315 20 4 20H17C18.6569 20 20 18.6569 20 17H22ZM4 22C1.23858 22 -1 19.7614 -1 17V2C-1 -0.761424 1.23858 -3 4 -3V3C2.34315 3 1 3.44772 1 4V17C1 18.6569 2.34315 20 4 20V22ZM17 -3C19.7614 -3 22 -0.761424 22 2V17C22 19.7614 19.7614 22 17 22V20C18.6569 20 20 18.6569 20 17V4C20 3.44772 18.6569 3 17 3V-3Z" fill="#56A30F" mask="url(#path-1-inside-1_230_14906)"/>
</svg>
